<mxfile host="Electron" agent="Mozilla/5.0 (Windows NT 10.0; Win64; x64) AppleWebKit/537.36 (KHTML, like Gecko) draw.io/26.0.4 Chrome/128.0.6613.186 Electron/32.2.5 Safari/537.36" version="26.0.4">
  <diagram name="ページ1" id="5h4TbbJ6Ypmz8vVngbdw">
    <mxGraphModel dx="915" dy="823" grid="1" gridSize="10" guides="1" tooltips="1" connect="1" arrows="1" fold="1" page="1" pageScale="1" pageWidth="827" pageHeight="1169" math="0" shadow="0">
      <root>
        <mxCell id="0" />
        <mxCell id="1" parent="0" />
        <mxCell id="n6YYVhby_2eLl_aleb5d-1" value="" style="rounded=0;whiteSpace=wrap;html=1;" parent="1" vertex="1">
          <mxGeometry y="40" width="810" height="720" as="geometry" />
        </mxCell>
        <mxCell id="n6YYVhby_2eLl_aleb5d-2" value="" style="rounded=0;whiteSpace=wrap;html=1;strokeColor=none;" parent="1" vertex="1">
          <mxGeometry x="10" y="50" width="180" height="700" as="geometry" />
        </mxCell>
        <mxCell id="n6YYVhby_2eLl_aleb5d-4" value="📅今日" style="rounded=1;whiteSpace=wrap;html=1;align=left;strokeColor=none;" parent="1" vertex="1">
          <mxGeometry x="104" y="130" width="76" height="30" as="geometry" />
        </mxCell>
        <mxCell id="n6YYVhby_2eLl_aleb5d-5" value="" style="rounded=0;whiteSpace=wrap;html=1;fillColor=#262626;gradientColor=none;strokeColor=#666666;" parent="1" vertex="1">
          <mxGeometry x="200" y="50" width="320" height="690" as="geometry" />
        </mxCell>
        <mxCell id="n6YYVhby_2eLl_aleb5d-6" value="" style="rounded=0;whiteSpace=wrap;html=1;strokeColor=none;" parent="1" vertex="1">
          <mxGeometry x="530" y="50" width="270" height="690" as="geometry" />
        </mxCell>
        <mxCell id="n6YYVhby_2eLl_aleb5d-7" value="📅明日" style="rounded=1;whiteSpace=wrap;html=1;align=left;strokeColor=none;" parent="1" vertex="1">
          <mxGeometry x="10" y="160" width="80" height="30" as="geometry" />
        </mxCell>
        <mxCell id="n6YYVhby_2eLl_aleb5d-8" value="📅3日" style="rounded=1;whiteSpace=wrap;html=1;align=left;strokeColor=none;" parent="1" vertex="1">
          <mxGeometry x="104" y="160" width="76" height="30" as="geometry" />
        </mxCell>
        <mxCell id="n6YYVhby_2eLl_aleb5d-23" value="Tarou&amp;nbsp;&lt;span style=&quot;background-color: initial;&quot;&gt;Yamada&lt;/span&gt;" style="shape=rect;arcSize=50;strokeColor=none;fillColor=#333333;rounded=1;spacingLeft=24;fontSize=13;align=center;whiteSpace=wrap;html=1;" parent="1" vertex="1">
          <mxGeometry x="20" y="700" width="160" height="32" as="geometry" />
        </mxCell>
        <mxCell id="n6YYVhby_2eLl_aleb5d-24" value="" style="dashed=0;shape=mxgraph.gmdl.user;strokeColor=none;fillColor=#666666;" parent="n6YYVhby_2eLl_aleb5d-23" vertex="1">
          <mxGeometry width="32" height="32" relative="1" as="geometry" />
        </mxCell>
        <mxCell id="n6YYVhby_2eLl_aleb5d-25" value="" style="shape=ellipse;strokeColor=none;fillColor=#A5A5A5;aspect=fixed;" parent="n6YYVhby_2eLl_aleb5d-23" vertex="1">
          <mxGeometry x="1" y="0.5" width="16" height="16" relative="1" as="geometry">
            <mxPoint x="-24" y="-8" as="offset" />
          </mxGeometry>
        </mxCell>
        <mxCell id="n6YYVhby_2eLl_aleb5d-26" value="" style="dashed=0;shape=mxgraph.gmdl.x;strokeColor=#ffffff;strokeWidth=2;" parent="n6YYVhby_2eLl_aleb5d-25" vertex="1">
          <mxGeometry x="5" y="5" width="6" height="6" as="geometry" />
        </mxCell>
        <mxCell id="n6YYVhby_2eLl_aleb5d-34" value="" style="shape=image;html=1;verticalAlign=top;verticalLabelPosition=bottom;labelBackgroundColor=none;imageAspect=0;aspect=fixed;image=https://cdn4.iconfinder.com/data/icons/flat-black/128/menu.png;fontColor=none;noLabel=1;imageBorder=none;imageBackground=#ADADAD;" parent="1" vertex="1">
          <mxGeometry x="10" y="50" width="30" height="30" as="geometry" />
        </mxCell>
        <mxCell id="n6YYVhby_2eLl_aleb5d-35" value="" style="group" parent="1" vertex="1" connectable="0">
          <mxGeometry x="10" y="290" width="170" height="110" as="geometry" />
        </mxCell>
        <mxCell id="n6YYVhby_2eLl_aleb5d-27" value="プロジェクト1" style="rounded=1;whiteSpace=wrap;html=1;align=left;labelBackgroundColor=none;fillColor=#3D3D3D;fontColor=#FFFFFF;strokeColor=none;" parent="n6YYVhby_2eLl_aleb5d-35" vertex="1">
          <mxGeometry x="30" width="140" height="30" as="geometry" />
        </mxCell>
        <mxCell id="n6YYVhby_2eLl_aleb5d-28" value="リスト2" style="rounded=1;whiteSpace=wrap;html=1;align=left;strokeColor=none;" parent="n6YYVhby_2eLl_aleb5d-35" vertex="1">
          <mxGeometry x="50" y="80" width="120" height="30" as="geometry" />
        </mxCell>
        <mxCell id="n6YYVhby_2eLl_aleb5d-32" value="リスト1" style="rounded=1;whiteSpace=wrap;html=1;align=left;labelBackgroundColor=none;fillColor=#3D3D3D;fontColor=#FFFFFF;strokeColor=none;" parent="n6YYVhby_2eLl_aleb5d-35" vertex="1">
          <mxGeometry x="50" y="40" width="120" height="30" as="geometry" />
        </mxCell>
        <mxCell id="n6YYVhby_2eLl_aleb5d-33" value="&amp;gt;" style="rounded=0;whiteSpace=wrap;html=1;strokeColor=none;" parent="n6YYVhby_2eLl_aleb5d-35" vertex="1">
          <mxGeometry y="5" width="20" height="20" as="geometry" />
        </mxCell>
        <mxCell id="n6YYVhby_2eLl_aleb5d-36" value="" style="group;strokeColor=none;" parent="1" vertex="1" connectable="0">
          <mxGeometry x="10" y="420" width="170" height="110" as="geometry" />
        </mxCell>
        <mxCell id="n6YYVhby_2eLl_aleb5d-37" value="プロジェクト2" style="rounded=1;whiteSpace=wrap;html=1;align=left;labelBackgroundColor=none;strokeColor=none;fillColor=default;" parent="n6YYVhby_2eLl_aleb5d-36" vertex="1">
          <mxGeometry x="30" width="140" height="30" as="geometry" />
        </mxCell>
        <mxCell id="n6YYVhby_2eLl_aleb5d-38" value="リスト2" style="rounded=1;whiteSpace=wrap;html=1;align=left;strokeColor=none;" parent="n6YYVhby_2eLl_aleb5d-36" vertex="1">
          <mxGeometry x="50" y="80" width="120" height="30" as="geometry" />
        </mxCell>
        <mxCell id="n6YYVhby_2eLl_aleb5d-39" value="リスト1" style="rounded=1;whiteSpace=wrap;html=1;align=left;labelBackgroundColor=none;strokeColor=none;fillColor=default;" parent="n6YYVhby_2eLl_aleb5d-36" vertex="1">
          <mxGeometry x="50" y="40" width="120" height="30" as="geometry" />
        </mxCell>
        <mxCell id="n6YYVhby_2eLl_aleb5d-40" value="&amp;gt;" style="rounded=0;whiteSpace=wrap;html=1;strokeColor=none;" parent="n6YYVhby_2eLl_aleb5d-36" vertex="1">
          <mxGeometry y="5" width="20" height="20" as="geometry" />
        </mxCell>
        <mxCell id="n6YYVhby_2eLl_aleb5d-41" value="タスク2" style="rounded=0;whiteSpace=wrap;html=1;align=left;strokeColor=none;" parent="1" vertex="1">
          <mxGeometry x="540" y="70" width="130" height="30" as="geometry" />
        </mxCell>
        <mxCell id="n6YYVhby_2eLl_aleb5d-44" value="&lt;div style=&quot;text-align: justify;&quot;&gt;&lt;br&gt;&lt;/div&gt;" style="rounded=0;whiteSpace=wrap;html=1;strokeColor=none;" parent="1" vertex="1">
          <mxGeometry x="210" y="330" width="300" height="180" as="geometry" />
        </mxCell>
        <mxCell id="n6YYVhby_2eLl_aleb5d-45" value="完了済み" style="rounded=0;whiteSpace=wrap;html=1;align=left;strokeColor=none;" parent="1" vertex="1">
          <mxGeometry x="220" y="340" width="280" height="30" as="geometry" />
        </mxCell>
        <mxCell id="n6YYVhby_2eLl_aleb5d-46" value="&lt;pre style=&quot;text-align: justify;&quot;&gt;&lt;strike&gt;&lt;font color=&quot;#a1a1a1&quot;&gt;✔ タスク9&lt;/font&gt;&lt;/strike&gt;&lt;/pre&gt;" style="rounded=1;whiteSpace=wrap;html=1;align=left;strokeColor=none;fillStyle=auto;gradientColor=none;" parent="1" vertex="1">
          <mxGeometry x="210" y="390" width="300" height="30" as="geometry" />
        </mxCell>
        <mxCell id="n6YYVhby_2eLl_aleb5d-50" value="&lt;div&gt;&lt;span style=&quot;color: light-dark(rgb(0, 127, 255), rgb(0, 127, 255)); font-size: 10px; background-color: transparent;&quot;&gt;明日 18:00&lt;/span&gt;&lt;br&gt;&lt;/div&gt;" style="rounded=0;whiteSpace=wrap;html=1;strokeColor=none;" parent="1" vertex="1">
          <mxGeometry x="724" y="70" width="66" height="30" as="geometry" />
        </mxCell>
        <mxCell id="n6YYVhby_2eLl_aleb5d-57" value="&lt;h1&gt;見出し1&lt;/h1&gt;&lt;h2&gt;見出し2&lt;/h2&gt;&lt;h3&gt;見出し3&lt;/h3&gt;&lt;h4&gt;見出し4&lt;/h4&gt;&lt;h5&gt;見出し5&lt;/h5&gt;&lt;h6&gt;見出し6&lt;/h6&gt;&lt;p&gt;通常スタイル&lt;/p&gt;&lt;p&gt;&lt;strike&gt;取り消し&lt;/strike&gt;&lt;/p&gt;&lt;p&gt;サンプル文章です。 &lt;font&gt;&lt;font style=&quot;color: light-dark(rgb(0, 0, 0), rgb(0, 127, 255));&quot;&gt;#タグ1&lt;/font&gt;&amp;nbsp;や &lt;font style=&quot;color: light-dark(rgb(0, 0, 0), rgb(0, 127, 255));&quot;&gt;@明日 18:00&lt;/font&gt;&amp;nbsp;&amp;nbsp;&lt;/font&gt;もつけられます&lt;/p&gt;" style="rounded=0;whiteSpace=wrap;html=1;align=left;" parent="1" vertex="1">
          <mxGeometry x="540" y="330" width="250" height="402" as="geometry" />
        </mxCell>
        <mxCell id="n6YYVhby_2eLl_aleb5d-19" value="" style="shape=ellipse;fillColor=#FF4081;strokeColor=none;shadow=1;aspect=fixed;sketch=0;html=1;labelPosition=center;verticalLabelPosition=bottom;align=center;verticalAlign=top;" parent="1" vertex="1">
          <mxGeometry x="750" y="680" width="36" height="36" as="geometry" />
        </mxCell>
        <mxCell id="n6YYVhby_2eLl_aleb5d-20" value="" style="dashed=0;html=1;shape=mxgraph.gmdl.plus;strokeColor=#ffffff;strokeWidth=2;shadow=0;sketch=0;" parent="n6YYVhby_2eLl_aleb5d-19" vertex="1">
          <mxGeometry x="12.857142857142856" y="12.857142857142856" width="10.285714285714286" height="10.285714285714286" as="geometry" />
        </mxCell>
        <mxCell id="vU3zSg6w9GPp_9O03FrT-2" value="&lt;font style=&quot;color: rgb(184, 184, 184);&quot;&gt;🔍️検索&lt;/font&gt;" style="rounded=1;whiteSpace=wrap;html=1;align=left;strokeColor=light-dark(#000000,#9E9E9E);" parent="1" vertex="1">
          <mxGeometry x="10" y="90" width="180" height="30" as="geometry" />
        </mxCell>
        <mxCell id="vU3zSg6w9GPp_9O03FrT-3" value="←" style="rounded=0;whiteSpace=wrap;html=1;" parent="1" vertex="1">
          <mxGeometry x="160" y="55" width="30" height="25" as="geometry" />
        </mxCell>
        <mxCell id="vU3zSg6w9GPp_9O03FrT-4" value="プロジェクト1" style="rounded=1;whiteSpace=wrap;html=1;align=left;spacingLeft=4;" parent="1" vertex="1">
          <mxGeometry x="540" y="160" width="250" height="40" as="geometry" />
        </mxCell>
        <mxCell id="vU3zSg6w9GPp_9O03FrT-5" value="リスト1" style="rounded=1;whiteSpace=wrap;html=1;align=left;spacingLeft=4;" parent="1" vertex="1">
          <mxGeometry x="540" y="209" width="250" height="40" as="geometry" />
        </mxCell>
        <mxCell id="vU3zSg6w9GPp_9O03FrT-7" value="緊急度" style="rounded=0;whiteSpace=wrap;html=1;align=left;strokeColor=none;" parent="1" vertex="1">
          <mxGeometry x="540" y="110" width="50" height="30" as="geometry" />
        </mxCell>
        <mxCell id="vU3zSg6w9GPp_9O03FrT-8" value="重要度" style="rounded=0;whiteSpace=wrap;html=1;align=left;strokeColor=none;" parent="1" vertex="1">
          <mxGeometry x="670" y="110" width="50" height="30" as="geometry" />
        </mxCell>
        <mxCell id="vU3zSg6w9GPp_9O03FrT-9" value="&lt;span style=&quot;font-size: 10px; text-align: center;&quot;&gt;&lt;font style=&quot;color: rgb(255, 255, 255);&quot;&gt;中&lt;/font&gt;&lt;/span&gt;" style="rounded=1;whiteSpace=wrap;html=1;align=left;spacingLeft=4;strokeColor=none;" parent="1" vertex="1">
          <mxGeometry x="750" y="110" width="50" height="30" as="geometry" />
        </mxCell>
        <mxCell id="vU3zSg6w9GPp_9O03FrT-10" value="&lt;div style=&quot;text-align: center;&quot;&gt;&lt;span style=&quot;background-color: transparent; color: light-dark(rgb(0, 0, 0), rgb(255, 255, 255)); font-size: 10px;&quot;&gt;中&lt;/span&gt;&lt;/div&gt;" style="rounded=1;whiteSpace=wrap;html=1;align=left;spacingLeft=4;strokeColor=none;" parent="1" vertex="1">
          <mxGeometry x="590" y="110" width="40" height="30" as="geometry" />
        </mxCell>
        <mxCell id="vU3zSg6w9GPp_9O03FrT-11" value="タグ" style="rounded=0;whiteSpace=wrap;html=1;align=left;strokeColor=none;" parent="1" vertex="1">
          <mxGeometry x="540" y="270" width="50" height="30" as="geometry" />
        </mxCell>
        <mxCell id="vU3zSg6w9GPp_9O03FrT-13" value="&lt;p&gt;&lt;span style=&quot;color: light-dark(rgb(0, 127, 255), rgb(0, 127, 255)); background-color: transparent;&quot;&gt;#タグ1 #タグ2 #タグ3&lt;/span&gt;&lt;/p&gt;" style="rounded=0;whiteSpace=wrap;html=1;strokeColor=none;align=left;fontSize=12;" parent="1" vertex="1">
          <mxGeometry x="580" y="270" width="200" height="30" as="geometry" />
        </mxCell>
        <mxCell id="DxYMQf74PoOJkx8qLQiR-1" value="📅期限切れ" style="rounded=1;whiteSpace=wrap;html=1;align=left;strokeColor=none;" vertex="1" parent="1">
          <mxGeometry x="10" y="130" width="80" height="30" as="geometry" />
        </mxCell>
        <mxCell id="DxYMQf74PoOJkx8qLQiR-2" value="📅今週" style="rounded=1;whiteSpace=wrap;html=1;align=left;strokeColor=none;" vertex="1" parent="1">
          <mxGeometry x="10" y="190" width="80" height="30" as="geometry" />
        </mxCell>
        <mxCell id="DxYMQf74PoOJkx8qLQiR-3" value="" style="group" vertex="1" connectable="0" parent="1">
          <mxGeometry x="210" y="120" width="300" height="30" as="geometry" />
        </mxCell>
        <mxCell id="n6YYVhby_2eLl_aleb5d-31" value="◯ タスク1" style="rounded=1;whiteSpace=wrap;html=1;align=left;strokeColor=none;" parent="DxYMQf74PoOJkx8qLQiR-3" vertex="1">
          <mxGeometry width="300" height="30" as="geometry" />
        </mxCell>
        <mxCell id="n6YYVhby_2eLl_aleb5d-47" value="&lt;font style=&quot;font-size: 10px;&quot;&gt;昨日&lt;br&gt;18:30&lt;/font&gt;" style="rounded=0;whiteSpace=wrap;html=1;strokeColor=none;align=right;fontColor=#FF0000;" parent="DxYMQf74PoOJkx8qLQiR-3" vertex="1">
          <mxGeometry x="240" width="56" height="30" as="geometry" />
        </mxCell>
        <mxCell id="n6YYVhby_2eLl_aleb5d-55" value="&lt;font style=&quot;font-size: 10px;&quot; color=&quot;#007fff&quot;&gt;&amp;nbsp; ❗️　&lt;/font&gt;" style="rounded=0;whiteSpace=wrap;html=1;strokeColor=none;align=right;" parent="DxYMQf74PoOJkx8qLQiR-3" vertex="1">
          <mxGeometry x="200" width="26" height="30" as="geometry" />
        </mxCell>
        <mxCell id="DxYMQf74PoOJkx8qLQiR-4" value="" style="group" vertex="1" connectable="0" parent="1">
          <mxGeometry x="210" y="160" width="300" height="30" as="geometry" />
        </mxCell>
        <mxCell id="n6YYVhby_2eLl_aleb5d-42" value="◯ タスク2" style="rounded=1;whiteSpace=wrap;html=1;align=left;strokeColor=none;fillColor=#3D3D3D;" parent="DxYMQf74PoOJkx8qLQiR-4" vertex="1">
          <mxGeometry width="300" height="30" as="geometry" />
        </mxCell>
        <mxCell id="n6YYVhby_2eLl_aleb5d-48" value="&lt;font style=&quot;font-size: 10px;&quot; color=&quot;#007fff&quot;&gt;&amp;nbsp;明日&lt;br&gt;18:00&lt;/font&gt;" style="rounded=0;whiteSpace=wrap;html=1;strokeColor=none;align=right;fillColor=none;" parent="DxYMQf74PoOJkx8qLQiR-4" vertex="1">
          <mxGeometry x="240" width="56" height="30" as="geometry" />
        </mxCell>
        <mxCell id="DxYMQf74PoOJkx8qLQiR-5" value="" style="group" vertex="1" connectable="0" parent="1">
          <mxGeometry x="210" y="200" width="300" height="30" as="geometry" />
        </mxCell>
        <mxCell id="n6YYVhby_2eLl_aleb5d-43" value="◯ タスク3" style="rounded=1;whiteSpace=wrap;html=1;align=left;strokeColor=none;" parent="DxYMQf74PoOJkx8qLQiR-5" vertex="1">
          <mxGeometry width="300" height="30" as="geometry" />
        </mxCell>
        <mxCell id="n6YYVhby_2eLl_aleb5d-49" value="&lt;font style=&quot;font-size: 10px;&quot; color=&quot;#007fff&quot;&gt;&amp;nbsp;12/31&amp;nbsp;&lt;/font&gt;" style="rounded=0;whiteSpace=wrap;html=1;strokeColor=none;align=right;" parent="DxYMQf74PoOJkx8qLQiR-5" vertex="1">
          <mxGeometry x="240" width="56" height="30" as="geometry" />
        </mxCell>
        <mxCell id="DxYMQf74PoOJkx8qLQiR-6" value="" style="group" vertex="1" connectable="0" parent="1">
          <mxGeometry x="210" y="240" width="300" height="30" as="geometry" />
        </mxCell>
        <mxCell id="n6YYVhby_2eLl_aleb5d-60" value="◯ タスク4" style="rounded=1;whiteSpace=wrap;html=1;align=left;strokeColor=none;" parent="DxYMQf74PoOJkx8qLQiR-6" vertex="1">
          <mxGeometry width="300" height="30" as="geometry" />
        </mxCell>
        <mxCell id="n6YYVhby_2eLl_aleb5d-61" value="&lt;font style=&quot;font-size: 10px;&quot; color=&quot;#007fff&quot;&gt;&amp;nbsp;12/31 12:00&lt;/font&gt;" style="rounded=0;whiteSpace=wrap;html=1;strokeColor=none;align=right;" parent="DxYMQf74PoOJkx8qLQiR-6" vertex="1">
          <mxGeometry x="240" width="56" height="30" as="geometry" />
        </mxCell>
        <mxCell id="DxYMQf74PoOJkx8qLQiR-7" value="&lt;font style=&quot;color: rgb(184, 184, 184);&quot;&gt;＋タスクを追加&lt;/font&gt;" style="rounded=1;whiteSpace=wrap;html=1;align=left;strokeColor=light-dark(#000000,#9E9E9E);" vertex="1" parent="1">
          <mxGeometry x="210" y="60" width="290" height="30" as="geometry" />
        </mxCell>
        <mxCell id="DxYMQf74PoOJkx8qLQiR-10" value="📅今月" style="rounded=1;whiteSpace=wrap;html=1;align=left;strokeColor=none;" vertex="1" parent="1">
          <mxGeometry x="104" y="190" width="76" height="30" as="geometry" />
        </mxCell>
      </root>
    </mxGraphModel>
  </diagram>
</mxfile>
